#define bullet_width 6
#define bullet_height 12
static char bullet_bits[] = {
  0x01, 0x03, 0x07, 0x0F, 0x1F, 0x3F, 0x3F, 0x1F, 0x0F, 0x07, 0x03, 0x01, 
  };
