#define desk_toggled_width 12
#define desk_toggled_height 12
static char desk_toggled_bits[] = {
  0x00, 0x00, 0x00, 0x00, 0x00, 0x00, 0xF8, 0x01, 0xF8, 0x01, 0xD8, 0x01, 
  0xB8, 0x01, 0xF8, 0x01, 0xF8, 0x01, 0x00, 0x00, 0x00, 0x00, 0x00, 0x00, 
  };
