#define max_width 12
#define max_height 12
static char max_bits[] = {
  0xFF, 0x0F, 0xFF, 0x0F, 0xFF, 0x0F, 0xDF, 0x0F, 0x03, 0x0C, 0x03, 0x0C, 
  0x03, 0x0C, 0x03, 0x0C, 0x03, 0x0C, 0x07, 0x0E, 0xFF, 0x0F, 0xFF, 0x0F, 
  };
