#define max_toggled_width 12
#define max_toggled_height 12
static char max_toggled_bits[] = {
  0xF8, 0x0F, 0xF8, 0x0F, 0x38, 0x0C, 0x18, 0x0C, 0xFF, 0x0D, 0xFF, 0x0C, 
  0xC3, 0x0C, 0xC3, 0x0F, 0xC3, 0x0F, 0xC3, 0x00, 0xFF, 0x00, 0xFF, 0x00, 
  };
