/* XPM */
static char *system_shutdown[] = {
/* columns rows colors chars-per-pixel */
"32 32 102 2 ",
"   c gray16",
".  c gray17",
"X  c gray18",
"o  c #323232",
"O  c gray20",
"+  c #393939",
"@  c #3E3E3E",
"#  c #414141",
"$  c gray30",
"%  c gray31",
"&  c #515151",
"*  c gray32",
"=  c #535353",
"-  c #555555",
";  c gray35",
":  c #5A5A5A",
">  c #686868",
",  c DimGray",
"<  c gray42",
"1  c gray46",
"2  c #767676",
"3  c gray48",
"4  c #7E7E7E",
"5  c #808080",
"6  c #818181",
"7  c #898989",
"8  c gray54",
"9  c #8B8B8B",
"0  c #8D8D8D",
"q  c #8E8E8E",
"w  c #909090",
"e  c #989898",
"r  c #9B9B9B",
"t  c gray61",
"y  c #9D9D9D",
"u  c gray62",
"i  c #9F9F9F",
"p  c #A0A0A0",
"a  c gray67",
"s  c #ACACAC",
"d  c gray71",
"f  c #B6B6B6",
"g  c gray72",
"h  c gray75",
"j  c #C1C1C1",
"k  c #C3C3C3",
"l  c #C6C6C6",
"z  c gray79",
"x  c #CACACA",
"c  c #CBCBCB",
"v  c gray80",
"b  c #CDCDCD",
"n  c #CECECE",
"m  c #D0D0D0",
"M  c gray82",
"N  c #D2D2D2",
"B  c LightGray",
"V  c gray83",
"C  c #D5D5D5",
"Z  c gray84",
"A  c #D7D7D7",
"S  c #D8D8D8",
"D  c gray85",
"F  c #DADADA",
"G  c gray86",
"H  c gainsboro",
"J  c #DDDDDD",
"K  c gray87",
"L  c #DFDFDF",
"P  c gray88",
"I  c #E1E1E1",
"U  c #E2E2E2",
"Y  c gray89",
"T  c #E4E4E4",
"R  c gray90",
"E  c #E6E6E6",
"W  c #E7E7E7",
"Q  c gray91",
"!  c #E9E9E9",
"~  c #EAEAEA",
"^  c gray92",
"/  c #ECECEC",
"(  c gray93",
")  c #EEEEEE",
"_  c #EFEFEF",
"`  c gray94",
"'  c #F1F1F1",
"]  c gray95",
"[  c #F3F3F3",
"{  c #F4F4F4",
"}  c gray96",
"|  c #F6F6F6",
" . c gray97",
".. c #F8F8F8",
"X. c #F9F9F9",
"o. c gray98",
"O. c #FBFBFB",
"+. c gray99",
"@. c #FDFDFD",
"#. c #FEFEFE",
"$. c white",
"%. c None",
/* pixels */
"%.%.%.%.%.%.%.%.%.%.%.%.%.%.%.%.%.%.%.%.%.%.%.%.%.%.%.%.%.%.%.%.",
"%.%.%.%.%.%.%.%.%.%.%.%.%.%.%.%.%.%.%.%.%.%.%.%.%.%.%.%.%.%.%.%.",
"%.%.%.%.i i i e e i e e e e i e i e i e e i e e e e i i i %.%.%.",
"%.%.%.i A X.$.$.$.$.$.$.$.$.$.$.$.$.$.$.$.$.$.$.$.$.$.X.S i %.%.",
"%.%.i S  .Y K K Y K Y Y K Y Y K Y Y Y K Y K Y Y K Y K E  .S p %.",
"%.%.i X.Y Y Y ! X.$.$.$.$.$.$.$.$.$.$.$.$.$.X.$. .E Y K E X.i %.",
"%.%.i $.K K K $. .] ]  .]  .]  .]  .]  .]  .] ]  . .Y K Y $.e %.",
"%.%.e $.Y Y Y $. .] ] ] ] ]  .] ] ] ] ] ] ] ]  .]  .Y Y Y $.e %.",
"%.%.e $.Y Y Y $.] ] ] ]  .] ] ] ] ] ] ] ] ] ] ] ] ] Y Y Y $.e %.",
"%.%.e $.Y Y Y $.] ] ] _ S b b M M M M b K _ ] ] ] ] E Y E $.e %.",
"%.%.i $.Y E E $._ _ _ _ b   % & % % %   z _ _ _ _ _ E E E $.i %.",
"%.%.e $.Y E E X._ ! _ _ M O , , , , <   z _ _ _ _ _ E E E $.e %.",
"%.%.i $.E E E X._ _ _ _ b + 3 3 3 3 3 X l _ _ ! ! _ ! ! E $.e %.",
"%.%.e $.E E !  .! ! ! _ b # 7 7 7 0 7 O j _ ! _ _ ! ! ! E $.i %.",
"%.%.i $.! E ! ] ! ! _ ! M & s a s a s @ j ! ! ! ! E ! ! E $.e %.",
"%.%.e $.! ! ! ] ! ! ! ! M , A A A A M - h ! ! ! ! E ! ! ! $.i %.",
"%.%.e $.! ! ! ] ! ! ! ! M 1 E E E E S , h ! ! ! ! Y ! _ ! $.e %.",
"%.%.i $.! _ ! ! E E E E M 4 ! ! ! ! S 1 h E E E E K _ ! ! $.i %.",
"%.%.e $.! _ ! _ E E E Y M 5 _ _ _ _ E 0 f E E E E K _ ! ! $.e %.",
"%.%.i $.! ! _ E Y Y E E M 7  . . . . .f f K Y Y E S _ _ _ $.i %.",
"%.%.e $.! _ ! E Y Y Y Y A 0 M $.$.$.$.i h M Y Y Y S _ _ ! $.e %.",
"%.%.e $._ ! _ E Y Y Y Y Y ; 7 7 7 7 5 ; z z Y Y Y A _ ! _ $.i %.",
"%.%.i $.! _ _ Y Y K K K Y & ; ; ; ; ; & M l Y K K A _ _ _ $.e %.",
"%.%.e $._ ! _ K K Y K K K _ A A S K Y K M b S Y K M _ _ _ $.e %.",
"%.%.e $._ _ _ S K K K K K K S M A M A A K S S K K M _ _ _ $.e %.",
"%.%.e $.! _ _ K K K K K K S K K K K K K K K K K S A _ _ ! $.i %.",
"%.%.i $._ _ _ ! S S A A A A M M M M M M b M M M A ! _ _ ] X.i %.",
"%.%.i K X._ _ _ _ ] ] ] ]  . . . . . . .]  .] ] _ _ _ ] X.K e %.",
"%.%.%.i S X.$.$.$.$.$.$.$.$.$.$.$.$.$.$.$.$.$.$.$.$.$.$.S i %.%.",
"%.%.%.%.w i i e e i e i e i e e e i i e e i e i e i e e 0 %.%.%.",
"%.%.%.%.%.%.%.%.%.%.%.%.%.%.%.%.%.%.%.%.%.%.%.%.%.%.%.%.%.%.%.%.",
"%.%.%.%.%.%.%.%.%.%.%.%.%.%.%.%.%.%.%.%.%.%.%.%.%.%.%.%.%.%.%.%."
};
